<?xml version="1.0" encoding="UTF-8" standalone="no"?>
<!-- Created with Inkscape (http://www.inkscape.org/) -->

<svg
   xmlns:dc="http://purl.org/dc/elements/1.1/"
   xmlns:cc="http://creativecommons.org/ns#"
   xmlns:rdf="http://www.w3.org/1999/02/22-rdf-syntax-ns#"
   xmlns:svg="http://www.w3.org/2000/svg"
   xmlns="http://www.w3.org/2000/svg"
   xmlns:sodipodi="http://sodipodi.sourceforge.net/DTD/sodipodi-0.dtd"
   xmlns:inkscape="http://www.inkscape.org/namespaces/inkscape"
   width="67.513519mm"
   height="8.7721348mm"
   viewBox="0 0 239.22115 31.082366"
   id="svg3489"
   version="1.1"
   inkscape:version="0.91 r13725"
   sodipodi:docname="DSpace-logo-line.svg">
  <defs
     id="defs3491" />
  <sodipodi:namedview
     id="base"
     pagecolor="#ffffff"
     bordercolor="#666666"
     borderopacity="1.0"
     inkscape:pageopacity="0.0"
     inkscape:pageshadow="2"
     inkscape:zoom="3.959798"
     inkscape:cx="61.134081"
     inkscape:cy="44.259828"
     inkscape:document-units="px"
     inkscape:current-layer="layer1"
     showgrid="false"
     inkscape:window-width="1920"
     inkscape:window-height="1017"
     inkscape:window-x="-4"
     inkscape:window-y="-4"
     inkscape:window-maximized="1"
     width="296mm"
     fit-margin-top="0.5"
     fit-margin-left="0.5"
     fit-margin-right="0.5"
     fit-margin-bottom="0.5"
     showborder="true" />
  <metadata
     id="metadata3494">
    <rdf:RDF>
      <cc:Work
         rdf:about="">
        <dc:format>image/svg+xml</dc:format>
        <dc:type
           rdf:resource="http://purl.org/dc/dcmitype/StillImage" />
        <dc:title></dc:title>
      </cc:Work>
    </rdf:RDF>
  </metadata>
  <g
     inkscape:label="Layer 1"
     inkscape:groupmode="layer"
     id="layer1"
     transform="translate(9.5741286,-887.95821)">
    <rect
       style="fill:#000000;fill-opacity:1;fill-rule:nonzero;stroke:none"
       id="rect5410-8-8"
       width="98.565758"
       height="26.332384"
       x="-7.802475"
       y="890.216"
       ry="1.3500717"
       inkscape:export-xdpi="254.91064"
       inkscape:export-ydpi="254.91064" />
    <g
       transform="matrix(0.27567259,0,0,-0.27567259,-4.5723394,912.16815)"
       inkscape:label="ink_ext_XXXXXX"
       id="g2993-1-97"
       style="fill:#ffffff;fill-opacity:1"
       inkscape:export-xdpi="254.91064"
       inkscape:export-ydpi="254.91064">
      <g
         transform="scale(0.1,0.1)"
         id="g2995-3-1"
         style="fill:#ffffff;fill-opacity:1">
        <path
           id="path2997-1-9"
           style="fill:#ffffff;fill-opacity:1;fill-rule:nonzero;stroke:none"
           d="m 785.461,22.3125 c -33.281,3.8242 -56.191,5.7305 -68.731,5.7305 -11.457,0 -40.91,-1.9063 -88.363,-5.7305 19.082,15.2656 28.637,30.2773 28.637,45 0,14.7266 -1.613,33.8325 -4.824,57.2895 L 601.965,480.039 384.555,7.57813 162.219,489.203 93.9492,127.066 C 89.6758,104.145 87.543,82.0547 87.543,60.7813 c 0,-4.9063 5.9961,-12.004 18,-21.2852 9.816,-7.6445 18.816,-13.3594 27,-17.1836 C 97.6328,26.1367 74.168,28.043 62.1836,28.043 55.6367,28.043 34.8984,26.1367 0,22.3125 c 20.7227,15.2656 31.9102,24.2656 33.543,27.0039 7.082,10.9024 14.7304,36.8164 22.914,77.7226 21.2657,104.731 45.535,230.449 72.816,377.184 3.809,19.64 5.727,32.445 5.727,38.457 0,8.179 -7.645,19.902 -22.91,35.179 -14.7267,13.629 -28.1017,23.18 -40.0939,28.641 40.7579,-3.824 67.3989,-5.73 79.9019,-5.73 9.782,0 26.094,1.906 48.926,5.73 0,-28.164 6.789,-57.16 20.375,-86.973 L 400.691,132.68 572.461,496.172 c 17.629,36.23 26.457,58.73 26.457,67.516 0,15.363 -12.285,29.628 -36.828,42.812 44.187,-3.824 71.18,-5.73 81.008,-5.73 8.711,0 35.711,1.906 80.996,5.73 -22.375,-12.008 -36.555,-20.187 -42.539,-24.547 -10.918,-8.73 -16.367,-18.551 -16.367,-29.453 0,-9.281 1.082,-21.828 3.269,-37.637 l 49.07,-385.367 C 723.523,80.4063 746.16,44.6719 785.461,22.3125"
           inkscape:connector-curvature="0" />
        <path
           id="path2999-8-5"
           style="fill:#ffffff;fill-opacity:1;fill-rule:nonzero;stroke:none"
           d="m 964.813,23.4922 c -25.133,3.0351 -43.985,4.5508 -56.551,4.5508 -10.828,0 -30.125,-1.5157 -57.852,-4.5508 20.801,12.1289 31.199,28.1641 31.199,48.1016 l 0,372.4492 c 0,18.629 -10.183,33.148 -30.546,43.551 29.906,-3.039 48.964,-4.551 57.199,-4.551 8.23,0 26.648,1.512 55.246,4.551 -19.492,-10.403 -29.238,-24.922 -29.238,-43.551 l 0,-372.4492 c 0,-19.9375 10.171,-35.9727 30.543,-48.1016"
           inkscape:connector-curvature="0" />
        <path
           id="path3001-9-3"
           style="fill:#ffffff;fill-opacity:1;fill-rule:nonzero;stroke:none"
           d="m 1340.51,87.1914 c -3.9,-9.1016 -9.97,-23.3984 -18.21,-42.8984 -5.19,-8.6719 -8.67,-13.8711 -10.39,-15.6016 -4.34,-3.9023 -9.98,-5.8476 -16.9,-5.8476 -15.6,0 -43.77,0.871 -84.5,2.6015 -40.73,1.7344 -70.42,2.5977 -89.05,2.5977 -11.7,0 -31.85,-1.7305 -60.45,-5.1992 13.86,9.5429 22.75,16.4804 26.65,20.8281 5.62,7.8047 8.45,18.6484 8.45,32.539 l 0,354.7501 c 0,26.465 -12.14,45.562 -36.4,57.281 32.07,-3.472 52.43,-5.199 61.1,-5.199 9.1,0 31.42,1.727 66.95,5.199 -26,-11.742 -39,-30.64 -39,-56.715 l 0,-383.984 c 24.62,-1.3047 46.87,-1.9532 66.73,-1.9532 50.95,0 82.91,4.2696 95.87,12.8008 4.74,2.9883 14.46,12.5821 29.15,28.8008"
           inkscape:connector-curvature="0" />
        <path
           id="path3003-28-79"
           style="fill:#ffffff;fill-opacity:1;fill-rule:nonzero;stroke:none"
           d="m 1677.21,87.1914 c -3.9,-9.1016 -9.97,-23.3984 -18.21,-42.8984 -5.19,-8.6719 -8.67,-13.8711 -10.39,-15.6016 -4.34,-3.9023 -9.98,-5.8476 -16.9,-5.8476 -15.6,0 -43.77,0.871 -84.5,2.6015 -40.74,1.7344 -70.42,2.5977 -89.06,2.5977 -11.69,0 -31.84,-1.7305 -60.44,-5.1992 13.86,9.5429 22.75,16.4804 26.65,20.8281 5.62,7.8047 8.45,18.6484 8.45,32.539 l 0,354.7501 c 0,26.465 -12.14,45.562 -36.4,57.281 32.07,-3.472 52.43,-5.199 61.1,-5.199 9.1,0 31.42,1.727 66.95,5.199 -26,-11.742 -39,-30.64 -39,-56.715 l 0,-383.984 c 24.62,-1.3047 46.86,-1.9532 66.73,-1.9532 50.94,0 82.91,4.2696 95.87,12.8008 4.74,2.9883 14.46,12.5821 29.15,28.8008"
           inkscape:connector-curvature="0" />
        <path
           id="path3005-7-0"
           style="fill:#ffffff;fill-opacity:1;fill-rule:nonzero;stroke:none"
           d="m 1852.71,23.4922 c -25.14,3.0351 -43.99,4.5508 -56.55,4.5508 -10.84,0 -30.12,-1.5157 -57.85,-4.5508 20.8,12.1289 31.2,28.1641 31.2,48.1016 l 0,372.4492 c 0,18.629 -10.19,33.148 -30.55,43.551 29.9,-3.039 48.96,-4.551 57.2,-4.551 8.22,0 26.65,1.512 55.25,4.551 -19.51,-10.403 -29.25,-24.922 -29.25,-43.551 l 0,-372.4492 c 0,-19.9375 10.17,-35.9727 30.55,-48.1016"
           inkscape:connector-curvature="0" />
        <path
           id="path3007-7-6"
           style="fill:#ffffff;fill-opacity:1;fill-rule:nonzero;stroke:none"
           d="m 2361.65,218.492 c -25.57,-13 -38.35,-26.437 -38.35,-40.301 l 0,-150.7965 -27.29,0 c 2.59,0 -9.21,-2.0507 -35.43,-6.1797 -26.22,-4.1093 -53.41,-6.1718 -81.58,-6.1718 -92.3,0 -160.77,29.8984 -205.4,89.699 -32.07,42.899 -48.09,92.074 -48.09,147.547 0,68.469 21.44,125.879 64.34,172.25 44.63,48.527 102.91,72.805 174.86,72.805 42.46,0 86.66,-10.84 132.59,-32.5 7.37,-2.172 16.9,-5.426 28.61,-9.75 0.42,-9.535 0.42,-17.551 0,-24.055 -0.88,-8.672 -2.83,-25.348 -5.85,-50.047 -6.08,27.297 -19.08,48.317 -39.01,63.051 -33.37,24.695 -73.02,37.051 -118.95,37.051 -51.13,0 -93.82,-18.852 -128.05,-56.555 -35.97,-39.434 -53.94,-90.344 -53.94,-152.746 0,-65 16.06,-120.039 48.21,-165.098 36.04,-50.2731 85.33,-75.402 147.87,-75.402 29.53,0 61.02,5.625 94.46,16.8984 l 0,129.9996 c 0,10.403 -7.94,21.012 -23.8,31.852 -4.86,3.465 -9.7,6.5 -14.55,9.098 32.93,-3.039 53.95,-4.551 63.05,-4.551 9.53,0 31.63,1.305 66.3,3.902"
           inkscape:connector-curvature="0" />
        <path
           id="path3009-73-6"
           style="fill:#ffffff;fill-opacity:1;fill-rule:nonzero;stroke:none"
           d="m 2706.72,172.992 -96.25,241.078 -98.31,-241.078 194.56,0 z M 2856.95,23.4922 c -32.08,3.0351 -53.52,4.5508 -64.35,4.5508 -11.7,0 -32.94,-1.5157 -63.7,-4.5508 12.99,9.9766 19.5,18.6367 19.5,26.0117 0,13.4336 -2.36,26.0078 -7.09,37.7188 l -24.66,60.4183 -215.51,0 -24.65,-61.6605 c -6.36,-17.793 -9.54,-29.0782 -9.54,-33.8477 0,-3.9101 3.25,-9.2344 9.75,-15.957 6.5,-6.7227 11.7,-10.9453 15.59,-12.6836 -23.83,3.0351 -41.38,4.5508 -52.64,4.5508 -12.14,0 -30.55,-1.5157 -55.26,-4.5508 16.91,9.1016 30.12,18.4101 39.66,27.9492 6.06,6.0625 14.08,19.7149 24.05,40.9531 l 178.11,410.1405 163.14,-388.691 c 6.93,-13.438 15.16,-28.3909 24.7,-44.8518 4.33,-6.9375 11.7,-16.4727 22.1,-28.6016 6.06,-6.0742 13,-11.6992 20.8,-16.8984"
           inkscape:connector-curvature="0" />
        <path
           id="path3011-6-1"
           style="fill:#ffffff;fill-opacity:1;fill-rule:nonzero;stroke:none"
           d="m 3344.43,487.594 c -15.59,-10.403 -24.92,-17.34 -27.95,-20.801 -6.07,-8.246 -9.1,-22.551 -9.1,-42.91 l 0,-423.883 -343.84,409.324 0,-335.1638 c 0,-15.6016 3.68,-27.2891 11.05,-35.0782 4.33,-4.7734 12.77,-9.9648 25.34,-15.5898 -26.43,3.0351 -43.98,4.5508 -52.64,4.5508 -11.27,0 -30.13,-1.5157 -56.56,-4.5508 27.74,13 41.6,30.7617 41.6,53.3008 l 0,350.352 c 0,17.324 -4.98,30.546 -14.95,39.648 -3.03,2.598 -14.73,9.523 -35.09,20.801 29.9,-3.039 53.51,-4.551 70.84,-4.551 8.23,0 25.13,1.512 50.71,4.551 -4.78,-4.348 -7.15,-10.879 -7.15,-19.571 0,-10.003 9.09,-25.878 27.29,-47.625 L 3225.7,178.375 c 16.39,-19.121 33.66,-38.898 51.79,-59.312 l 0,313.187 c 0,16.055 -2.39,27.555 -7.16,34.504 -3.89,5.211 -13.22,12.152 -27.95,20.84 27.31,-3.039 44.86,-4.551 52.66,-4.551 6.92,0 23.4,1.512 49.39,4.551"
           inkscape:connector-curvature="0" />
      </g>
    </g>
    <g
       style="font-style:normal;font-variant:normal;font-weight:normal;font-stretch:normal;font-size:40px;line-height:125%;font-family:'Averia Serif';-inkscape-font-specification:'Averia Serif';letter-spacing:0px;word-spacing:0px;fill:#000000;fill-opacity:1;stroke:none"
       id="text3145-4">
      <path
         d="m 117.60194,895.96033 q -0.3711,0 -3.75,8.53515 -3.35938,8.53516 -3.65235,9.14063 -0.91797,1.85547 -1.97265,1.85547 -0.83985,0 -4.58985,-9.58985 -3.730466,-9.60937 -4.316404,-9.60937 -0.332031,0 -0.332031,7.91015 0,7.91016 0.742188,9.92188 l 0.312497,0.66406 q 0.35157,0.74219 0.35157,1.03516 0,0.80078 -3.378911,0.80078 -3.359375,0 -3.359375,-0.95703 0,-0.17578 1.015625,-1.07422 1.015625,-0.91797 1.40625,-2.63672 0.410156,-1.73828 0.410156,-14.19922 0,-3.59375 -1.09375,-5.09765 l -0.625,-0.64454 q -0.585937,-0.60546 -0.585937,-1.05468 0,-0.74219 3.515625,-0.74219 2.03125,0 2.910157,0.44922 0.89844,0.42969 1.69922,1.58203 0.80078,1.13281 3.82812,8.73047 3.04688,7.59765 3.30078,7.59765 0.25391,0 3.37891,-7.57812 3.14453,-7.59766 4.04297,-8.92578 0.91797,-1.34766 2.16797,-1.71875 0.64453,-0.19531 2.10937,-0.19531 3.32032,0 3.32032,0.76171 0,0.56641 -0.80079,1.48438 -0.80078,0.91797 -1.09375,2.28516 -0.29296,1.34765 -0.29296,5.58593 l 0.0195,1.23047 q 0.0195,1.23047 0.0195,5.11719 0,3.86719 0.3125,5.3125 0.3125,1.42578 0.83984,2.14844 l 0.58594,0.64453 q 0.95703,0.9375 0.95703,0.97656 l -0.13672,0.42969 q -0.70312,0.64453 -3.65234,0.64453 -2.92969,0 -3.96485,-0.42969 -0.58593,-0.23437 -0.58593,-0.78125 l 0.23437,-0.52734 0.33203,-0.60547 q 0.35157,-0.76172 0.56641,-2.22656 0.23437,-1.48438 0.23437,-7.2461 l 0.0391,-5.95703 q 0,-3.04687 -0.46875,-3.04687 z"
         style=""
         id="path3457" />
      <path
         d="m 148.75428,915.68689 q -3.10547,1.58203 -6.46484,1.58203 -3.35938,0 -5.58594,-0.9375 -4.6875,-1.97266 -6.67969,-6.875 -1.03515,-2.55859 -1.03515,-5.33203 l 0,-0.72266 q 0,-2.7539 0.95703,-5.33203 0.97656,-2.57812 2.65625,-4.35547 1.67968,-1.79687 3.92578,-2.89062 2.26562,-1.09375 4.78515,-1.09375 l 0.66407,0 q 1.01562,0 3.3789,0.39062 2.36328,0.3711 3.73047,0.3711 1.36719,0 1.875,1.28906 0.52735,1.26953 0.52735,3.92578 0,1.34766 -0.76172,1.34766 -0.3125,0 -1.48438,-1.36719 -3.00781,-3.51563 -7.20703,-3.51563 -1.81641,0 -3.41797,0.89844 -4.6875,2.65625 -4.70703,10.39063 0,0.0781 0,0.13672 0,2.38281 0.64453,4.43359 1.32813,4.23828 4.7461,5.80078 1.46484,0.68359 3.22265,0.68359 1.75781,0 3.35938,-0.60546 1.62109,-0.625 3.20312,-1.79688 1.58203,-1.17187 2.28516,-1.17187 0.41015,0 0.41015,0.76171 0,0.76172 -0.97656,2.10938 -0.97656,1.32812 -2.05078,1.875 z"
         style=""
         id="path3459" />
      <path
         d="m 155.74647,911.64392 0,-0.68359 q 0,-1.66016 0.78125,-1.66016 0.37109,0 1.69922,1.81641 3.78906,3.32031 6.40625,3.80859 2.26562,0 3.63281,-1.17187 1.38672,-1.19141 1.38672,-2.91016 0,-2.24609 -2.03125,-3.75 -1.01563,-0.74219 -4.47266,-2.30469 -3.45703,-1.5625 -4.82422,-2.87109 -2.10937,-2.03125 -2.10937,-4.70703 0,-3.32032 2.36328,-5.42969 0.9375,-0.83984 2.44141,-1.44531 1.5039,-0.60547 3.0664,-0.60547 1.5625,0 3.125,0.3125 1.5625,0.3125 2.36328,0.3125 l 1.09375,-0.0391 q 1.11328,0 1.46485,1.09375 0.35156,1.09375 0.35156,3.80859 0,1.36719 -0.54688,1.36719 -0.54687,0 -1.66015,-1.48438 -1.11328,-1.48437 -2.44141,-2.34375 -1.30859,-0.8789 -3.30078,-0.8789 -1.97266,0 -3.22266,1.09375 -1.25,1.09375 -1.25,2.89062 0,1.77734 1.91407,3.125 0.97656,0.68359 4.53125,2.24609 3.51562,1.5625 4.88281,2.8125 2.38281,2.20704 2.38281,5.46875 0,3.24219 -2.46094,5.46875 -2.4414,2.20704 -6.07421,2.20704 -0.0391,0 -0.0586,0 -1.64062,0 -3.75,-0.42969 -2.10937,-0.42969 -2.40234,-0.42969 l -0.56641,0.0391 -0.54687,0.0586 q -1.19141,0 -1.67969,-1.19141 -0.48828,-1.21094 -0.48828,-3.59375 z"
         style=""
         id="path3461" />
      <path
         d="m 188.34412,913.81189 q 0.82032,0 0.82032,0.60547 0,0.82031 -1.64063,1.69922 -1.64062,0.8789 -3.125,0.8789 -2.7539,0 -3.82812,-2.36328 -0.70313,-1.54297 -0.70313,-6.42578 0,-4.88281 -0.35156,-5.85937 -0.33203,-0.97657 -1.05469,-1.38672 -1.38672,-0.80078 -1.38672,-1.09375 0,-0.42969 0.3711,-0.66407 0.37109,-0.23437 0.85937,-0.48828 0.50781,-0.2539 0.74219,-0.50781 0.23437,-0.25391 0.70312,-1.34766 0.48829,-1.11328 0.625,-1.36718 0.9375,-1.83594 1.99219,-1.83594 l 0.27344,0 q 0.68359,0 1.17187,1.77734 0.50782,1.75782 0.78125,2.05078 0.64454,0.70313 2.44141,0.95704 1.79688,0.2539 1.79688,1.13281 0,0.8789 -1.97266,1.30859 -1.97266,0.42969 -2.38281,1.17188 -0.60547,1.09375 -0.60547,5.27343 0,4.16016 0.70312,5.39063 0.70313,1.21094 2.67578,1.21094 0.87891,-0.11719 1.09375,-0.11719 z"
         style=""
         id="path3463" />
      <path
         d="m 206.25428,908.1283 0,-0.48829 q 0,-3.26171 -1.34766,-5.54687 -0.60546,-1.03516 -1.54296,-1.60156 -0.91797,-0.58594 -1.69922,-0.58594 l -0.58594,0 q -1.75781,0 -3.04688,1.875 -1.26953,1.85547 -1.26953,4.31641 l -0.0391,0.46875 -0.0195,0.70312 0,0.25391 0.0195,0.23437 0.0195,0.46875 q 0.0195,0.23438 0.0195,0.46875 0,2.46094 1.60157,4.78516 1.23046,1.77734 3.16406,1.77734 l 0.21484,0 0.19531,-0.0195 q 1.97266,0 3.14454,-2.07031 1.17187,-2.08985 1.17187,-5.03906 z m 4.39453,-1.23047 0,0.97656 q 0,1.67969 -0.68359,3.47656 -0.6836,1.77735 -1.95313,3.125 -2.61718,2.77344 -6.25,2.77344 l -0.9375,0 q -1.75781,0 -3.26172,-0.72266 -3.26171,-1.5625 -4.47265,-4.9414 -0.60547,-1.69922 -0.60547,-3.32032 l 0,-0.97656 q 0,-1.67969 0.68359,-3.47656 0.6836,-1.83594 1.99219,-3.20313 2.57813,-2.71484 6.44531,-2.71484 l 0.0586,0 0.3125,0 q 3.55468,0 6.03515,2.48047 1.28907,1.28906 1.95313,3.06641 0.68359,1.75781 0.68359,3.45703 z"
         style=""
         id="path3465" />
      <path
         d="m 218.46131,898.89001 0.66406,0 q 0.85938,0 1.21094,1.23047 0.3711,1.23047 0.85938,1.23047 0.15625,0 0.83984,-0.60547 0.68359,-0.60547 0.99609,-0.83984 1.25,-0.91797 2.36329,-0.91797 1.11328,0 1.79687,0.625 0.68359,0.625 0.68359,1.36719 l 0,0.3125 q 0,0.5664 -0.44921,1.13281 -0.42969,0.54688 -1.19141,0.54688 -0.13672,0 -1.13281,-0.3711 -0.97657,-0.39062 -1.60157,-0.39062 -0.60546,0 -1.36718,0.58593 -0.74219,0.56641 -1.28907,1.875 -0.52734,1.28907 -0.52734,4.45313 0,3.16406 0.39063,4.0625 0.41015,0.87891 1.42578,1.81641 1.01562,0.91796 1.01562,1.05468 0,0.83985 -5.74219,0.83985 l -0.82031,0 -0.80078,0.0195 q -1.95312,0 -1.95312,-0.58594 0,-0.60547 0.9375,-1.23047 0.9375,-0.625 1.21093,-1.36719 0.29297,-0.74218 0.29297,-3.30078 l 0,-3.3789 -0.0391,-1.67969 q 0,-1.97266 -0.33203,-2.75391 -0.33203,-0.80078 -1.07422,-1.44531 -0.74219,-0.64453 -0.74219,-0.9375 0,-0.29297 0.3711,-0.52734 1.30859,-0.82032 4.0039,-0.82032 z"
         style=""
         id="path3467" />
    </g>
  </g>
</svg>
