<?xml version="1.0" encoding="UTF-8" standalone="no"?>
<!-- Created with Inkscape (http://www.inkscape.org/) -->

<svg
   xmlns:dc="http://purl.org/dc/elements/1.1/"
   xmlns:cc="http://creativecommons.org/ns#"
   xmlns:rdf="http://www.w3.org/1999/02/22-rdf-syntax-ns#"
   xmlns:svg="http://www.w3.org/2000/svg"
   xmlns="http://www.w3.org/2000/svg"
   xmlns:sodipodi="http://sodipodi.sourceforge.net/DTD/sodipodi-0.dtd"
   xmlns:inkscape="http://www.inkscape.org/namespaces/inkscape"
   id="svg2985"
   version="1.1"
   inkscape:version="0.48.4 r9939"
   width="418.05"
   height="75.8125"
   xml:space="preserve"
   sodipodi:docname="Milligan Wordmark W 2013.eps"><metadata
     id="metadata2991"><rdf:RDF><cc:Work
         rdf:about=""><dc:format>image/svg+xml</dc:format><dc:type
           rdf:resource="http://purl.org/dc/dcmitype/StillImage" /><dc:title></dc:title></cc:Work></rdf:RDF></metadata><defs
     id="defs2989" /><sodipodi:namedview
     pagecolor="#000000"
     bordercolor="#666666"
     borderopacity="1"
     objecttolerance="10"
     gridtolerance="10"
     guidetolerance="10"
     inkscape:pageopacity="0"
     inkscape:pageshadow="2"
     inkscape:window-width="640"
     inkscape:window-height="480"
     id="namedview2987"
     showgrid="false"
     inkscape:zoom="0.7941634"
     inkscape:cx="209.02499"
     inkscape:cy="37.90625"
     inkscape:window-x="0"
     inkscape:window-y="0"
     inkscape:window-maximized="0"
     inkscape:current-layer="g2993" /><g
     id="g2993"
     inkscape:groupmode="layer"
     inkscape:label="ink_ext_XXXXXX"
     transform="matrix(1.25,0,0,-1.25,0,75.8125)"><g
       id="g2995"
       transform="scale(0.1,0.1)"><path
         d="m 785.461,22.3125 c -33.281,3.8242 -56.191,5.7305 -68.731,5.7305 -11.457,0 -40.91,-1.9063 -88.363,-5.7305 19.082,15.2656 28.637,30.2773 28.637,45 0,14.7266 -1.613,33.8325 -4.824,57.2895 L 601.965,480.039 384.555,7.57813 162.219,489.203 93.9492,127.066 C 89.6758,104.145 87.543,82.0547 87.543,60.7813 c 0,-4.9063 5.9961,-12.004 18,-21.2852 9.816,-7.6445 18.816,-13.3594 27,-17.1836 C 97.6328,26.1367 74.168,28.043 62.1836,28.043 55.6367,28.043 34.8984,26.1367 0,22.3125 c 20.7227,15.2656 31.9102,24.2656 33.543,27.0039 7.082,10.9024 14.7304,36.8164 22.914,77.7226 21.2657,104.731 45.535,230.449 72.816,377.184 3.809,19.64 5.727,32.445 5.727,38.457 0,8.179 -7.645,19.902 -22.91,35.179 -14.7267,13.629 -28.1017,23.18 -40.0939,28.641 40.7579,-3.824 67.3989,-5.73 79.9019,-5.73 9.782,0 26.094,1.906 48.926,5.73 0,-28.164 6.789,-57.16 20.375,-86.973 L 400.691,132.68 572.461,496.172 c 17.629,36.23 26.457,58.73 26.457,67.516 0,15.363 -12.285,29.628 -36.828,42.812 44.187,-3.824 71.18,-5.73 81.008,-5.73 8.711,0 35.711,1.906 80.996,5.73 -22.375,-12.008 -36.555,-20.187 -42.539,-24.547 -10.918,-8.73 -16.367,-18.551 -16.367,-29.453 0,-9.281 1.082,-21.828 3.269,-37.637 l 49.07,-385.367 C 723.523,80.4063 746.16,44.6719 785.461,22.3125"
         style="fill:#000000;fill-opacity:1;fill-rule:nonzero;stroke:none"
         id="path2997" /><path
         d="m 964.813,23.4922 c -25.133,3.0351 -43.985,4.5508 -56.551,4.5508 -10.828,0 -30.125,-1.5157 -57.852,-4.5508 20.801,12.1289 31.199,28.1641 31.199,48.1016 l 0,372.4492 c 0,18.629 -10.183,33.148 -30.546,43.551 29.906,-3.039 48.964,-4.551 57.199,-4.551 8.23,0 26.648,1.512 55.246,4.551 -19.492,-10.403 -29.238,-24.922 -29.238,-43.551 l 0,-372.4492 c 0,-19.9375 10.171,-35.9727 30.543,-48.1016"
         style="fill:#000000;fill-opacity:1;fill-rule:nonzero;stroke:none"
         id="path2999" /><path
         d="m 1340.51,87.1914 c -3.9,-9.1016 -9.97,-23.3984 -18.21,-42.8984 -5.19,-8.6719 -8.67,-13.8711 -10.39,-15.6016 -4.34,-3.9023 -9.98,-5.8476 -16.9,-5.8476 -15.6,0 -43.77,0.871 -84.5,2.6015 -40.73,1.7344 -70.42,2.5977 -89.05,2.5977 -11.7,0 -31.85,-1.7305 -60.45,-5.1992 13.86,9.5429 22.75,16.4804 26.65,20.8281 5.62,7.8047 8.45,18.6484 8.45,32.539 l 0,354.7501 c 0,26.465 -12.14,45.562 -36.4,57.281 32.07,-3.472 52.43,-5.199 61.1,-5.199 9.1,0 31.42,1.727 66.95,5.199 -26,-11.742 -39,-30.64 -39,-56.715 l 0,-383.984 c 24.62,-1.3047 46.87,-1.9532 66.73,-1.9532 50.95,0 82.91,4.2696 95.87,12.8008 4.74,2.9883 14.46,12.5821 29.15,28.8008"
         style="fill:#000000;fill-opacity:1;fill-rule:nonzero;stroke:none"
         id="path3001" /><path
         d="m 1677.21,87.1914 c -3.9,-9.1016 -9.97,-23.3984 -18.21,-42.8984 -5.19,-8.6719 -8.67,-13.8711 -10.39,-15.6016 -4.34,-3.9023 -9.98,-5.8476 -16.9,-5.8476 -15.6,0 -43.77,0.871 -84.5,2.6015 -40.74,1.7344 -70.42,2.5977 -89.06,2.5977 -11.69,0 -31.84,-1.7305 -60.44,-5.1992 13.86,9.5429 22.75,16.4804 26.65,20.8281 5.62,7.8047 8.45,18.6484 8.45,32.539 l 0,354.7501 c 0,26.465 -12.14,45.562 -36.4,57.281 32.07,-3.472 52.43,-5.199 61.1,-5.199 9.1,0 31.42,1.727 66.95,5.199 -26,-11.742 -39,-30.64 -39,-56.715 l 0,-383.984 c 24.62,-1.3047 46.86,-1.9532 66.73,-1.9532 50.94,0 82.91,4.2696 95.87,12.8008 4.74,2.9883 14.46,12.5821 29.15,28.8008"
         style="fill:#000000;fill-opacity:1;fill-rule:nonzero;stroke:none"
         id="path3003" /><path
         d="m 1852.71,23.4922 c -25.14,3.0351 -43.99,4.5508 -56.55,4.5508 -10.84,0 -30.12,-1.5157 -57.85,-4.5508 20.8,12.1289 31.2,28.1641 31.2,48.1016 l 0,372.4492 c 0,18.629 -10.19,33.148 -30.55,43.551 29.9,-3.039 48.96,-4.551 57.2,-4.551 8.22,0 26.65,1.512 55.25,4.551 -19.51,-10.403 -29.25,-24.922 -29.25,-43.551 l 0,-372.4492 c 0,-19.9375 10.17,-35.9727 30.55,-48.1016"
         style="fill:#000000;fill-opacity:1;fill-rule:nonzero;stroke:none"
         id="path3005" /><path
         d="m 2361.65,218.492 c -25.57,-13 -38.35,-26.437 -38.35,-40.301 l 0,-150.7965 -27.29,0 c 2.59,0 -9.21,-2.0507 -35.43,-6.1797 -26.22,-4.1093 -53.41,-6.1718 -81.58,-6.1718 -92.3,0 -160.77,29.8984 -205.4,89.699 -32.07,42.899 -48.09,92.074 -48.09,147.547 0,68.469 21.44,125.879 64.34,172.25 44.63,48.527 102.91,72.805 174.86,72.805 42.46,0 86.66,-10.84 132.59,-32.5 7.37,-2.172 16.9,-5.426 28.61,-9.75 0.42,-9.535 0.42,-17.551 0,-24.055 -0.88,-8.672 -2.83,-25.348 -5.85,-50.047 -6.08,27.297 -19.08,48.317 -39.01,63.051 -33.37,24.695 -73.02,37.051 -118.95,37.051 -51.13,0 -93.82,-18.852 -128.05,-56.555 -35.97,-39.434 -53.94,-90.344 -53.94,-152.746 0,-65 16.06,-120.039 48.21,-165.098 36.04,-50.2731 85.33,-75.402 147.87,-75.402 29.53,0 61.02,5.625 94.46,16.8984 l 0,129.9996 c 0,10.403 -7.94,21.012 -23.8,31.852 -4.86,3.465 -9.7,6.5 -14.55,9.098 32.93,-3.039 53.95,-4.551 63.05,-4.551 9.53,0 31.63,1.305 66.3,3.902"
         style="fill:#000000;fill-opacity:1;fill-rule:nonzero;stroke:none"
         id="path3007" /><path
         d="m 2706.72,172.992 -96.25,241.078 -98.31,-241.078 194.56,0 z M 2856.95,23.4922 c -32.08,3.0351 -53.52,4.5508 -64.35,4.5508 -11.7,0 -32.94,-1.5157 -63.7,-4.5508 12.99,9.9766 19.5,18.6367 19.5,26.0117 0,13.4336 -2.36,26.0078 -7.09,37.7188 l -24.66,60.4183 -215.51,0 -24.65,-61.6605 c -6.36,-17.793 -9.54,-29.0782 -9.54,-33.8477 0,-3.9101 3.25,-9.2344 9.75,-15.957 6.5,-6.7227 11.7,-10.9453 15.59,-12.6836 -23.83,3.0351 -41.38,4.5508 -52.64,4.5508 -12.14,0 -30.55,-1.5157 -55.26,-4.5508 16.91,9.1016 30.12,18.4101 39.66,27.9492 6.06,6.0625 14.08,19.7149 24.05,40.9531 l 178.11,410.1405 163.14,-388.691 c 6.93,-13.438 15.16,-28.3909 24.7,-44.8518 4.33,-6.9375 11.7,-16.4727 22.1,-28.6016 6.06,-6.0742 13,-11.6992 20.8,-16.8984"
         style="fill:#000000;fill-opacity:1;fill-rule:nonzero;stroke:none"
         id="path3009" /><path
         d="m 3344.43,487.594 c -15.59,-10.403 -24.92,-17.34 -27.95,-20.801 -6.07,-8.246 -9.1,-22.551 -9.1,-42.91 l 0,-423.883 -343.84,409.324 0,-335.1638 c 0,-15.6016 3.68,-27.2891 11.05,-35.0782 4.33,-4.7734 12.77,-9.9648 25.34,-15.5898 -26.43,3.0351 -43.98,4.5508 -52.64,4.5508 -11.27,0 -30.13,-1.5157 -56.56,-4.5508 27.74,13 41.6,30.7617 41.6,53.3008 l 0,350.352 c 0,17.324 -4.98,30.546 -14.95,39.648 -3.03,2.598 -14.73,9.523 -35.09,20.801 29.9,-3.039 53.51,-4.551 70.84,-4.551 8.23,0 25.13,1.512 50.71,4.551 -4.78,-4.348 -7.15,-10.879 -7.15,-19.571 0,-10.003 9.09,-25.878 27.29,-47.625 L 3225.7,178.375 c 16.39,-19.121 33.66,-38.898 51.79,-59.312 l 0,313.187 c 0,16.055 -2.39,27.555 -7.16,34.504 -3.89,5.211 -13.22,12.152 -27.95,20.84 27.31,-3.039 44.86,-4.551 52.66,-4.551 6.92,0 23.4,1.512 49.39,4.551"
         style="fill:#000000;fill-opacity:1;fill-rule:nonzero;stroke:none"
         id="path3011" /></g></g></svg>
