<?xml version="1.0" encoding="UTF-8" standalone="no"?>
<!-- Created with Inkscape (http://www.inkscape.org/) -->

<svg
   xmlns:dc="http://purl.org/dc/elements/1.1/"
   xmlns:cc="http://creativecommons.org/ns#"
   xmlns:rdf="http://www.w3.org/1999/02/22-rdf-syntax-ns#"
   xmlns:svg="http://www.w3.org/2000/svg"
   xmlns="http://www.w3.org/2000/svg"
   xmlns:sodipodi="http://sodipodi.sourceforge.net/DTD/sodipodi-0.dtd"
   xmlns:inkscape="http://www.inkscape.org/namespaces/inkscape"
   width="90.970329mm"
   height="20.989172mm"
   viewBox="0 0 322.33581 74.371081"
   id="svg4420"
   version="1.1"
   inkscape:version="0.91 r13725"
   sodipodi:docname="mcstor_logo2.svg">
  <defs
     id="defs4422" />
  <sodipodi:namedview
     id="base"
     pagecolor="#ffffff"
     bordercolor="#666666"
     borderopacity="1.0"
     inkscape:pageopacity="0.0"
     inkscape:pageshadow="2"
     inkscape:zoom="2.8284271"
     inkscape:cx="197.19329"
     inkscape:cy="-19.947631"
     inkscape:document-units="px"
     inkscape:current-layer="layer1"
     showgrid="false"
     fit-margin-top="0"
     fit-margin-left="0"
     fit-margin-right="0"
     fit-margin-bottom="0"
     inkscape:window-width="1920"
     inkscape:window-height="1017"
     inkscape:window-x="-4"
     inkscape:window-y="-4"
     inkscape:window-maximized="1" />
  <metadata
     id="metadata4425">
    <rdf:RDF>
      <cc:Work
         rdf:about="">
        <dc:format>image/svg+xml</dc:format>
        <dc:type
           rdf:resource="http://purl.org/dc/dcmitype/StillImage" />
        <dc:title></dc:title>
      </cc:Work>
    </rdf:RDF>
  </metadata>
  <g
     inkscape:label="Layer 1"
     inkscape:groupmode="layer"
     id="layer1"
     transform="translate(1566.8822,470.53763)">
    <g
       transform="scale(1.0099849,0.99011382)"
       style="font-style:normal;font-variant:normal;font-weight:normal;font-stretch:normal;font-size:80.37625122px;line-height:200%;font-family:Freshman;-inkscape-font-specification:'Freshman, Normal';text-align:start;letter-spacing:7px;word-spacing:0px;writing-mode:lr-tb;text-anchor:start;display:inline;fill:#000000;fill-opacity:1;stroke:#ea7125;stroke-width:8;stroke-linejoin:miter;stroke-miterlimit:4;stroke-dasharray:none;stroke-opacity:1"
       id="text2985-4-8">
      <path
         d="m -1510.3778,-412.44092 -14.6285,-24.19326 0,17.36127 4.0188,0 0,15.11074 -26.4438,0 0,-15.11074 4.0189,0 0,-36.81232 -4.0189,0 0,-15.11073 21.5409,0 15.5126,25.96153 15.5126,-25.96153 21.5408,0 0,15.11073 -4.0188,0 0,36.81232 4.0188,0 0,15.11074 -26.4437,0 0,-15.11074 4.0188,0 0,-17.36127 -14.6285,24.19326 z"
         style="font-style:normal;font-variant:normal;font-weight:normal;font-stretch:normal;font-size:80.37625122px;line-height:200%;font-family:Freshman;-inkscape-font-specification:'Freshman, Normal';text-align:start;letter-spacing:7px;writing-mode:lr-tb;text-anchor:start;fill:#000000;fill-opacity:1;stroke:#ea7125;stroke-width:8;stroke-linejoin:miter;stroke-miterlimit:4;stroke-dasharray:none;stroke-opacity:1"
         id="path4459" />
      <path
         d="m -1413.8955,-445.39519 -18.4061,0 0,-8.51988 -2.0898,-2.17016 -9.8059,0 -2.1702,2.17016 0,32.55238 2.1702,2.08978 9.8059,0 2.0898,-2.08978 0,-8.03762 18.4061,0 0,14.5481 -10.69,10.69004 -29.4981,0 -10.6901,-10.69004 0,-45.57334 10.6901,-10.77041 29.4981,0 10.69,10.77041 0,15.03036 z"
         style="font-style:normal;font-variant:normal;font-weight:normal;font-stretch:normal;font-size:80.37625122px;line-height:200%;font-family:Freshman;-inkscape-font-specification:'Freshman, Normal';text-align:start;letter-spacing:7px;writing-mode:lr-tb;text-anchor:start;fill:#000000;fill-opacity:1;stroke:#ea7125;stroke-width:8;stroke-linejoin:miter;stroke-miterlimit:4;stroke-dasharray:none;stroke-opacity:1"
         id="path4461" />
    </g>
    <g
       transform="scale(1.0099849,0.99011382)"
       style="font-style:normal;font-variant:normal;font-weight:normal;font-stretch:normal;font-size:80.37625122px;line-height:200%;font-family:Freshman;-inkscape-font-specification:'Freshman, Normal';text-align:start;letter-spacing:7px;word-spacing:0px;writing-mode:lr-tb;text-anchor:start;display:inline;fill:#000000;fill-opacity:1;stroke:#ffffff;stroke-width:1.5;stroke-linejoin:miter;stroke-miterlimit:4;stroke-dasharray:none;stroke-opacity:1"
       id="text2985-2">
      <path
         d="m -1510.4294,-412.5152 -14.6285,-24.19326 0,17.36127 4.0188,0 0,15.11074 -26.4438,0 0,-15.11074 4.0188,0 0,-36.81232 -4.0188,0 0,-15.11073 21.5408,0 15.5127,25.96153 15.5126,-25.96153 21.5408,0 0,15.11073 -4.0188,0 0,36.81232 4.0188,0 0,15.11074 -26.4438,0 0,-15.11074 4.0188,0 0,-17.36127 -14.6284,24.19326 z"
         style="font-style:normal;font-variant:normal;font-weight:normal;font-stretch:normal;font-size:80.37625122px;line-height:200%;font-family:Freshman;-inkscape-font-specification:'Freshman, Normal';text-align:start;letter-spacing:7px;writing-mode:lr-tb;text-anchor:start;fill:#000000;fill-opacity:1;stroke:#ffffff;stroke-width:1.5;stroke-linejoin:miter;stroke-miterlimit:4;stroke-dasharray:none;stroke-opacity:1"
         id="path4454" />
      <path
         d="m -1413.9471,-445.46947 -18.4062,0 0,-8.51988 -2.0898,-2.17016 -9.8059,0 -2.1701,2.17016 0,32.55238 2.1701,2.08978 9.8059,0 2.0898,-2.08978 0,-8.03762 18.4062,0 0,14.5481 -10.6901,10.69004 -29.498,0 -10.6901,-10.69004 0,-45.57334 10.6901,-10.77041 29.498,0 10.6901,10.77041 0,15.03036 z"
         style="font-style:normal;font-variant:normal;font-weight:normal;font-stretch:normal;font-size:80.37625122px;line-height:200%;font-family:Freshman;-inkscape-font-specification:'Freshman, Normal';text-align:start;letter-spacing:7px;writing-mode:lr-tb;text-anchor:start;fill:#000000;fill-opacity:1;stroke:#ffffff;stroke-width:1.5;stroke-linejoin:miter;stroke-miterlimit:4;stroke-dasharray:none;stroke-opacity:1"
         id="path4456" />
    </g>
    <g
       style="font-style:normal;font-variant:normal;font-weight:normal;font-stretch:normal;font-size:98.86538696px;line-height:125%;font-family:Rockwell;-inkscape-font-specification:'Rockwell, Normal';text-align:start;letter-spacing:0px;word-spacing:0px;writing-mode:lr-tb;text-anchor:start;display:inline;fill:#ea7125;fill-opacity:1;stroke:none;stroke-width:1px;stroke-linecap:butt;stroke-linejoin:miter;stroke-opacity:1"
       id="text4290-6">
      <path
         d="m -1420.1676,-398.51089 0,-24.37843 8.3997,0 0,5.93771 q 6.0342,10.95823 15.7856,10.95823 4.9722,0 8.3997,-3.04127 3.4275,-3.04127 3.4275,-7.96523 0,-4.77914 -2.7999,-6.85493 -2.7999,-2.12406 -10.5721,-4.19984 -9.0272,-2.41371 -13.3719,-4.53777 -4.3447,-2.17233 -6.9515,-6.13081 -2.5585,-4.00675 -2.5585,-9.46173 0,-8.44797 5.5998,-13.46848 5.6481,-5.06878 14.1443,-5.06878 8.0618,0 14.965,5.21361 l 0,-4.4895 8.2066,0 0,20.37168 -8.2066,0 0,-4.68259 q -5.1653,-7.77213 -14.2409,-7.77213 -5.5032,0 -8.4479,2.55853 -2.9448,2.51025 -2.9448,6.03426 0,2.70335 1.4965,4.77914 1.4965,2.02751 3.8137,2.99299 2.3171,0.96548 9.1238,2.70335 8.8824,2.31716 12.8892,4.34467 4.0067,1.97924 6.9032,6.66183 2.8964,4.68259 2.8964,10.76513 0,8.59279 -6.0825,14.19259 -6.0343,5.5998 -14.965,5.5998 -9.1721,0 -16.5097,-6.61356 l 0,5.55153 -8.3997,0 z"
         style="fill:#ea7125;fill-opacity:1;stroke:none"
         id="path4445" />
      <path
         d="m -1368.0799,-437.08191 0,-8.15833 6.0826,0 0,-7.19284 9.1721,-8.3997 0,15.59254 8.641,0 0,8.15833 -8.641,0 0,22.68883 q 0,5.45498 0.5792,6.75838 0.6276,1.25512 3.0413,1.25512 2.5585,0 5.0205,-0.96548 l 0,8.35142 q -3.524,1.25513 -7.048,1.25513 -4.1998,0 -6.8066,-1.83442 -2.6068,-1.88269 -3.2827,-4.68258 -0.6758,-2.7999 -0.6758,-9.65483 l 0,-23.17157 -6.0826,0 z"
         style="fill:#ea7125;fill-opacity:1;stroke:none"
         id="path4447" />
      <path
         d="m -1337.3775,-421.87557 q 0,-10.8134 7.1445,-17.7166 7.1446,-6.95147 17.427,-6.95147 10.0893,0 17.3304,6.85493 7.2411,6.80665 7.2411,17.81314 0,11.0065 -7.2411,17.86143 -7.1928,6.85492 -17.3304,6.85492 -10.4272,0 -17.5235,-6.95147 -7.048,-6.95147 -7.048,-17.76488 z m 9.7031,0 q 0,6.9032 4.2964,11.34442 4.3446,4.39295 10.572,4.39295 6.3239,0 10.572,-4.44122 4.2964,-4.4895 4.2964,-11.29615 0,-6.85492 -4.3446,-11.29614 -4.3447,-4.44122 -10.5238,-4.44122 -6.4687,0 -10.6686,4.53777 -4.1998,4.53777 -4.1998,11.19959 z"
         style="fill:#ea7125;fill-opacity:1;stroke:none"
         id="path4449" />
      <path
         d="m -1272.7868,-406.66922 0,-30.41269 -9.4134,0 0,-8.15833 16.7511,0 0,10.52376 q 1.5448,-4.1033 4.2964,-6.80665 2.7516,-2.70335 5.7929,-3.57229 3.0895,-0.86893 8.3997,-0.86893 l 2.4137,0 0,9.26863 -1.8344,0 q -6.9998,0 -10.4755,1.39995 -3.4275,1.39995 -5.1171,5.11706 -1.6413,3.66883 -1.6413,13.2271 l 0,10.28239 10.1859,0 0,8.15833 -28.7714,0 0,-8.15833 9.4134,0 z"
         style="fill:#ea7125;fill-opacity:1;stroke:none"
         id="path4451" />
    </g>
  </g>
</svg>
